# xmcd
# 
# Track frame offsets:
#     150
#     15913
#     29703
#     43775
#     59349
#     76613
#     92284
#     105584
#     121519
#     137540
#     149883
#     166411
#     180767
#     197224
#     215147
#     231565
# 
# Disc length: 3320
# 
# Revision: 1
# Processed by: cddbd v1.5.2PL0 Copyright (c) Steve Scherf et al.
# Submitted via: fre:ac v1.0.17
# 
DISCID=d40cf610
DTITLE=eduardo costa - Pecado de Amor
DYEAR=2012
DGENRE=Sertanejo
TTITLE0=Vida Sem Alma
TTITLE1=Se Não Vai Eu Vou
TTITLE2=Dança Louca
TTITLE3=Pecado De Amor (Se Deus Não Escreveu Assim)
TTITLE4=Na Rua
TTITLE5=Começar De Novo
TTITLE6=Anjo Protetor
TTITLE7=Eu Perdi Você
TTITLE8=Sem Ela Ao Meu Lado
TTITLE9=Presente De Aniversário (Part. Alexandre Pires)
TTITLE10=Eu Quero Te Dizer Que Sim
TTITLE11=Tô Caindo Fora
TTITLE12=Te Amo, Te Amo
TTITLE13=O Mais Amado Dos homens
TTITLE14=Aperte o Play
TTITLE15=Amor Além Da Vida
EXTD=bom de mais
EXTT0=
EXTT1=
EXTT2=
EXTT3=
EXTT4=
EXTT5=
EXTT6=
EXTT7=
EXTT8=
EXTT9=
EXTT10=
EXTT11=
EXTT12=
EXTT13=
EXTT14=
EXTT15=
PLAYORDER=
